<svg width="20" height="21" viewBox="0 0 20 21" fill="none" xmlns="http://www.w3.org/2000/svg">
<path d="M3.33337 3.93758C3.33337 3.46793 3.51994 3.01751 3.85204 2.68541C4.18413 2.35332 4.63455 2.16675 5.10421 2.16675H10.6609C10.9094 2.16686 11.1477 2.26562 11.3234 2.44133L16.3921 7.50966C16.568 7.6855 16.6667 7.92383 16.6667 8.17258V17.0626C16.6667 17.5322 16.4801 17.9827 16.148 18.3147C15.8159 18.6468 15.3655 18.8334 14.8959 18.8334H5.10421C4.63455 18.8334 4.18413 18.6468 3.85204 18.3147C3.51994 17.9827 3.33337 17.5322 3.33337 17.0626V3.93758ZM5.10421 3.20841C4.91082 3.20841 4.72535 3.28524 4.58861 3.42198C4.45186 3.55873 4.37504 3.74419 4.37504 3.93758V17.0626C4.37504 17.4655 4.70171 17.7917 5.10421 17.7917H14.8959C15.0893 17.7917 15.2747 17.7149 15.4115 17.5782C15.5482 17.4414 15.625 17.256 15.625 17.0626V8.41675H11.5625C11.1481 8.41675 10.7507 8.25213 10.4577 7.9591C10.1647 7.66608 10 7.26865 10 6.85425V3.20841H5.10421ZM11.5625 7.37508H14.7842L11.0417 3.63258V6.85425C11.0417 7.14175 11.275 7.37508 11.5625 7.37508Z" fill="#263238"/>
</svg>
