<svg width="20" height="20" viewBox="0 0 20 20" fill="none" xmlns="http://www.w3.org/2000/svg">
<path d="M3.93576 2.00005H16.2676C16.4641 1.99821 16.6588 2.04545 16.8401 2.13893C17.0214 2.23241 17.1854 2.3702 17.3224 2.54397C17.6012 2.90532 17.788 3.35962 17.8595 3.85058L19.9756 16.8966C19.9917 16.9971 19.9999 17.0992 20 17.2017C19.9972 17.4237 19.9585 17.6428 19.8861 17.8462C19.8137 18.0495 19.7091 18.233 19.5784 18.3858C19.3373 18.678 19.0325 18.8775 18.7011 18.9599C18.5939 18.9869 18.4848 19.0003 18.3755 19H6.2081C6.16577 19 6.12345 19 6.08276 19H0.950471C0.239146 18.9037 -0.040827 18.2574 0.00474989 17.4044L1.99549 4.96049C2.11268 4.40453 2.22174 3.82248 2.3601 3.35483C2.38273 3.26691 2.4116 3.18161 2.44637 3.09993L2.45451 3.07986C2.52557 2.91001 2.61847 2.75547 2.7296 2.62225C2.96511 2.33432 3.26198 2.1346 3.58579 2.04621C3.70081 2.01569 3.81811 2.00021 3.93576 2.00005ZM7.90095 11.4333C7.08708 10.3555 8.33393 8.75387 9.23408 9.76744C9.55149 10.1247 10.0138 10.6465 10.3344 11.0018L12.6882 7.4011C13.5509 6.30523 14.9084 7.91491 14.0587 9.0188L11.0734 13.4404C10.9029 13.6611 10.6697 13.7919 10.4227 13.8054C10.1757 13.8188 9.93411 13.7139 9.74845 13.5126C9.22268 12.8945 8.44625 12.0053 7.89933 11.4353L7.90095 11.4333ZM16.2676 3.30666H3.93576C3.89365 3.30672 3.85165 3.3121 3.81042 3.32272C3.68742 3.35657 3.57461 3.43238 3.48487 3.54149C3.42588 3.60497 3.38912 3.69418 3.38233 3.79036C3.63788 7.13616 5.03449 13.2999 5.66117 16.8825C5.69563 17.1238 5.78415 17.3484 5.91673 17.5308C5.95578 17.5806 6.00258 17.6201 6.05433 17.647C6.10608 17.6739 6.1617 17.6876 6.21786 17.6874H18.3983C18.436 17.6867 18.4736 17.682 18.5106 17.6733C18.6383 17.6414 18.7559 17.5648 18.8492 17.4525C18.9103 17.3853 18.9487 17.2922 18.9566 17.1916V17.1414L16.8405 4.09544C16.8099 3.85766 16.7239 3.63595 16.5931 3.45719C16.5536 3.40624 16.5061 3.36573 16.4535 3.33813C16.4009 3.31052 16.3443 3.2964 16.2871 3.29662L16.2676 3.30666Z" fill="black"/>
</svg>
