<svg width="20" height="21" viewBox="0 0 20 21" fill="none" xmlns="http://www.w3.org/2000/svg">
<path d="M1.25 6.4375C1.25 5.23 2.23 4.25 3.4375 4.25H16.5625C17.77 4.25 18.75 5.23 18.75 6.4375V14.5625C18.75 15.1427 18.5195 15.6991 18.1093 16.1093C17.6991 16.5195 17.1427 16.75 16.5625 16.75H3.4375C2.85734 16.75 2.30094 16.5195 1.8907 16.1093C1.48047 15.6991 1.25 15.1427 1.25 14.5625V6.4375ZM3.4375 5.5C3.18886 5.5 2.9504 5.59877 2.77459 5.77459C2.59877 5.9504 2.5 6.18886 2.5 6.4375V14.5625C2.5 15.08 2.92 15.5 3.4375 15.5H16.5625C16.8111 15.5 17.0496 15.4012 17.2254 15.2254C17.4012 15.0496 17.5 14.8111 17.5 14.5625V6.4375C17.5 6.18886 17.4012 5.9504 17.2254 5.77459C17.0496 5.59877 16.8111 5.5 16.5625 5.5H3.4375ZM11.875 8C11.7092 8 11.5503 8.06585 11.4331 8.18306C11.3158 8.30027 11.25 8.45924 11.25 8.625C11.25 8.79076 11.3158 8.94973 11.4331 9.06694C11.5503 9.18415 11.7092 9.25 11.875 9.25H15.625C15.7908 9.25 15.9497 9.18415 16.0669 9.06694C16.1842 8.94973 16.25 8.79076 16.25 8.625C16.25 8.45924 16.1842 8.30027 16.0669 8.18306C15.9497 8.06585 15.7908 8 15.625 8H11.875ZM11.875 11.75C11.7092 11.75 11.5503 11.8158 11.4331 11.9331C11.3158 12.0503 11.25 12.2092 11.25 12.375C11.25 12.5408 11.3158 12.6997 11.4331 12.8169C11.5503 12.9342 11.7092 13 11.875 13H15.625C15.7908 13 15.9497 12.9342 16.0669 12.8169C16.1842 12.6997 16.25 12.5408 16.25 12.375C16.25 12.2092 16.1842 12.0503 16.0669 11.9331C15.9497 11.8158 15.7908 11.75 15.625 11.75H11.875ZM6.57625 10.1425C6.79901 10.1425 7.01958 10.0986 7.22538 10.0134C7.43118 9.92814 7.61817 9.80319 7.77568 9.64568C7.93319 9.48817 8.05814 9.30118 8.14338 9.09538C8.22863 8.88958 8.2725 8.669 8.2725 8.44625C8.2725 8.2235 8.22863 8.00292 8.14338 7.79712C8.05814 7.59132 7.93319 7.40433 7.77568 7.24682C7.61817 7.08931 7.43118 6.96436 7.22538 6.87912C7.01958 6.79387 6.79901 6.75 6.57625 6.75C6.12638 6.75 5.69493 6.92871 5.37682 7.24682C5.05871 7.56493 4.88 7.99638 4.88 8.44625C4.88 8.89612 5.05871 9.32757 5.37682 9.64568C5.69493 9.96379 6.12638 10.1425 6.57625 10.1425ZM4.8225 10.99C4.53826 10.9907 4.26585 11.1039 4.06486 11.3049C3.86387 11.5058 3.75066 11.7783 3.75 12.0625C3.75004 12.528 3.90568 12.9802 4.19219 13.3471C4.4787 13.714 4.87963 13.9746 5.33125 14.0875L5.3975 14.105C6.1725 14.2987 6.98125 14.2987 7.755 14.105L7.8225 14.0888C8.27412 13.9759 8.67505 13.7152 8.96156 13.3483C9.24807 12.9814 9.40371 12.5293 9.40375 12.0638C9.40342 11.7793 9.29036 11.5066 9.08933 11.3053C8.88831 11.104 8.61571 10.9907 8.33125 10.99H4.8225Z" fill="#263238"/>
</svg>
