<svg width="20" height="21" viewBox="0 0 20 21" fill="none" xmlns="http://www.w3.org/2000/svg">
<path d="M9.95829 15.5001C10.25 15.5001 10.4966 15.3993 10.6983 15.1976C10.9 14.9959 11.0005 14.7495 11 14.4584C10.9994 14.1673 10.8988 13.9206 10.6983 13.7184C10.4977 13.5162 10.2511 13.4156 9.95829 13.4168C9.66552 13.4179 9.41913 13.5187 9.21913 13.7193C9.01913 13.9198 8.91829 14.1662 8.91663 14.4584C8.91496 14.7506 9.01579 14.9973 9.21913 15.1984C9.42246 15.3995 9.66885 15.5001 9.95829 15.5001ZM9.20829 12.2918H10.75C10.75 11.8334 10.8022 11.4723 10.9066 11.2084C11.0111 10.9445 11.3061 10.5834 11.7916 10.1251C12.1527 9.76397 12.4375 9.42009 12.6458 9.09342C12.8541 8.76675 12.9583 8.37453 12.9583 7.91675C12.9583 7.13897 12.6736 6.54175 12.1041 6.12509C11.5347 5.70842 10.8611 5.50009 10.0833 5.50009C9.29163 5.50009 8.64941 5.70842 8.15663 6.12509C7.66385 6.54175 7.31996 7.04175 7.12496 7.62509L8.49996 8.16675C8.5694 7.91675 8.72579 7.64592 8.96913 7.35425C9.21246 7.06259 9.58385 6.91675 10.0833 6.91675C10.5277 6.91675 10.8611 7.03842 11.0833 7.28175C11.3055 7.52509 11.4166 7.79231 11.4166 8.08342C11.4166 8.3612 11.3333 8.62175 11.1666 8.86509C11 9.10842 10.7916 9.33397 10.5416 9.54175C9.93052 10.0834 9.55552 10.4931 9.41663 10.7709C9.27774 11.0487 9.20829 11.5556 9.20829 12.2918ZM9.99996 18.8334C8.84718 18.8334 7.76385 18.6148 6.74996 18.1776C5.73607 17.7404 4.85413 17.1465 4.10413 16.3959C3.35413 15.6454 2.76052 14.7634 2.32329 13.7501C1.88607 12.7368 1.66718 11.6534 1.66663 10.5001C1.66607 9.34675 1.88496 8.26342 2.32329 7.25009C2.76163 6.23675 3.35524 5.35481 4.10413 4.60425C4.85302 3.8537 5.73496 3.26009 6.74996 2.82342C7.76496 2.38675 8.84829 2.16786 9.99996 2.16675C11.1516 2.16564 12.235 2.38453 13.25 2.82342C14.265 3.26231 15.1469 3.85592 15.8958 4.60425C16.6447 5.35259 17.2386 6.23453 17.6775 7.25009C18.1163 8.26564 18.335 9.34897 18.3333 10.5001C18.3316 11.6512 18.1127 12.7345 17.6766 13.7501C17.2405 14.7656 16.6469 15.6476 15.8958 16.3959C15.1447 17.1443 14.2627 17.7381 13.25 18.1776C12.2372 18.617 11.1538 18.8356 9.99996 18.8334ZM9.99996 17.1668C11.8611 17.1668 13.4375 16.5209 14.7291 15.2293C16.0208 13.9376 16.6666 12.3612 16.6666 10.5001C16.6666 8.63897 16.0208 7.06259 14.7291 5.77092C13.4375 4.47925 11.8611 3.83342 9.99996 3.83342C8.13885 3.83342 6.56246 4.47925 5.27079 5.77092C3.97913 7.06259 3.33329 8.63897 3.33329 10.5001C3.33329 12.3612 3.97913 13.9376 5.27079 15.2293C6.56246 16.5209 8.13885 17.1668 9.99996 17.1668Z" fill="#263238"/>
</svg>
