<svg width="25" height="25" viewBox="0 0 25 25" fill="none" xmlns="http://www.w3.org/2000/svg">
<path d="M12.9571 2.71411C9.07868 2.71411 5.94189 5.85089 5.94189 9.72928C5.94189 13.9083 10.3715 19.6708 12.1954 21.8655C12.5963 22.3466 13.3279 22.3466 13.7287 21.8655C15.5427 19.6708 19.9722 13.9083 19.9722 9.72928C19.9722 5.85089 16.8354 2.71411 12.9571 2.71411ZM12.9571 12.2347C11.5741 12.2347 10.4516 11.1123 10.4516 9.72928C10.4516 8.34629 11.5741 7.22386 12.9571 7.22386C14.3401 7.22386 15.4625 8.34629 15.4625 9.72928C15.4625 11.1123 14.3401 12.2347 12.9571 12.2347Z" fill="url(#paint0_linear_2850_388)"/>
<defs>
<linearGradient id="paint0_linear_2850_388" x1="12.9571" y1="2.71411" x2="12.9571" y2="22.2263" gradientUnits="userSpaceOnUse">
<stop stop-color="#49337B"/>
<stop offset="1" stop-color="#4B67A8"/>
</linearGradient>
</defs>
</svg>
