<svg width="28" height="28" viewBox="0 0 28 28" fill="none" xmlns="http://www.w3.org/2000/svg">
<path d="M14.0002 2.33325C9.48516 2.33325 5.8335 5.98492 5.8335 10.4999C5.8335 15.3649 10.9902 22.0733 13.1135 24.6283C13.5802 25.1883 14.4318 25.1883 14.8985 24.6283C17.0102 22.0733 22.1668 15.3649 22.1668 10.4999C22.1668 5.98492 18.5152 2.33325 14.0002 2.33325ZM14.0002 13.4166C12.3902 13.4166 11.0835 12.1099 11.0835 10.4999C11.0835 8.88992 12.3902 7.58325 14.0002 7.58325C15.6102 7.58325 16.9168 8.88992 16.9168 10.4999C16.9168 12.1099 15.6102 13.4166 14.0002 13.4166Z" fill="#FFCB4B"/>
</svg>
