<svg width="20" height="21" viewBox="0 0 20 21" fill="none" xmlns="http://www.w3.org/2000/svg">
<path d="M10.0001 2.16675C6.77508 2.16675 4.16675 4.77508 4.16675 8.00008C4.16675 11.4751 7.85008 16.2667 9.36675 18.0917C9.70008 18.4917 10.3084 18.4917 10.6417 18.0917C12.1501 16.2667 15.8334 11.4751 15.8334 8.00008C15.8334 4.77508 13.2251 2.16675 10.0001 2.16675ZM10.0001 10.0834C8.85008 10.0834 7.91675 9.15008 7.91675 8.00008C7.91675 6.85008 8.85008 5.91675 10.0001 5.91675C11.1501 5.91675 12.0834 6.85008 12.0834 8.00008C12.0834 9.15008 11.1501 10.0834 10.0001 10.0834Z" fill="#263238"/>
</svg>
