<svg width="20" height="21" viewBox="0 0 20 21" fill="none" xmlns="http://www.w3.org/2000/svg">
<path d="M6.77087 10.0834C6.63274 10.0834 6.50026 10.1383 6.40259 10.236C6.30491 10.3336 6.25004 10.4661 6.25004 10.6042C6.25004 10.7424 6.30491 10.8749 6.40259 10.9725C6.50026 11.0702 6.63274 11.1251 6.77087 11.1251H13.2292C13.3673 11.1251 13.4998 11.0702 13.5975 10.9725C13.6952 10.8749 13.75 10.7424 13.75 10.6042C13.75 10.4661 13.6952 10.3336 13.5975 10.236C13.4998 10.1383 13.3673 10.0834 13.2292 10.0834H6.77087ZM6.25004 13.1042C6.25004 12.8167 6.48337 12.5834 6.77087 12.5834H13.2292C13.3673 12.5834 13.4998 12.6383 13.5975 12.736C13.6952 12.8336 13.75 12.9661 13.75 13.1042C13.75 13.2424 13.6952 13.3749 13.5975 13.4725C13.4998 13.5702 13.3673 13.6251 13.2292 13.6251H6.77087C6.48337 13.6251 6.25004 13.3917 6.25004 13.1042ZM6.77087 15.0834C6.63274 15.0834 6.50026 15.1383 6.40259 15.236C6.30491 15.3336 6.25004 15.4661 6.25004 15.6042C6.25004 15.7424 6.30491 15.8749 6.40259 15.9725C6.50026 16.0702 6.63274 16.1251 6.77087 16.1251H13.2292C13.3673 16.1251 13.4998 16.0702 13.5975 15.9725C13.6952 15.8749 13.75 15.7424 13.75 15.6042C13.75 15.4661 13.6952 15.3336 13.5975 15.236C13.4998 15.1383 13.3673 15.0834 13.2292 15.0834H6.77087ZM3.33337 3.93758C3.33337 3.46793 3.51994 3.01751 3.85204 2.68541C4.18413 2.35332 4.63455 2.16675 5.10421 2.16675H10.6609C10.9094 2.16686 11.1477 2.26562 11.3234 2.44133L16.3921 7.50966C16.568 7.6855 16.6667 7.92383 16.6667 8.17258V17.0626C16.6667 17.5322 16.4801 17.9827 16.148 18.3147C15.8159 18.6468 15.3655 18.8334 14.8959 18.8334H5.10421C4.63455 18.8334 4.18413 18.6468 3.85204 18.3147C3.51994 17.9827 3.33337 17.5322 3.33337 17.0626V3.93758ZM5.10421 3.20841C4.91082 3.20841 4.72535 3.28524 4.58861 3.42198C4.45186 3.55873 4.37504 3.74419 4.37504 3.93758V17.0626C4.37504 17.4655 4.70171 17.7917 5.10421 17.7917H14.8959C15.0893 17.7917 15.2747 17.7149 15.4115 17.5782C15.5482 17.4414 15.625 17.256 15.625 17.0626V8.41675H11.5625C11.1481 8.41675 10.7507 8.25213 10.4577 7.9591C10.1647 7.66608 10 7.26865 10 6.85425V3.20841H5.10421ZM11.5625 7.37508H14.7842L11.0417 3.63258V6.85425C11.0417 7.14175 11.275 7.37508 11.5625 7.37508Z" fill="#263238"/>
</svg>
