<svg width="43" height="42" viewBox="0 0 43 42" fill="none" xmlns="http://www.w3.org/2000/svg">
<rect x="0.5" width="42" height="42" rx="6" fill="white"/>
<path d="M21.5001 20.9999C24.9561 21.0429 27.7061 18.2929 27.7501 14.7499C27.7941 11.2069 25.1133 8.38944 21.6573 8.34651C18.2013 8.30357 15.4514 11.0536 15.4073 14.5966C15.3633 18.1395 18.0441 20.957 21.5001 20.9999ZM32.8406 32.2776C31.3162 25.8044 24.9482 21.6755 18.633 23.2423C14.4223 24.329 11.0489 27.5774 9.88301 31.9923C9.75172 32.6235 10.1126 33.3873 10.8516 33.523C10.975 33.5246 11.0984 33.5261 11.0984 33.5261L31.5874 33.7806C32.328 33.7898 32.828 33.2898 32.8374 32.5306C32.839 32.4041 32.8406 32.2776 32.8406 32.2776Z" fill="#49337B"/>
</svg>
