<svg width="20" height="20" viewBox="0 0 20 20" fill="none" xmlns="http://www.w3.org/2000/svg">
<path d="M5 9.6875C5 9.43886 5.09877 9.2004 5.27459 9.02459C5.4504 8.84877 5.68886 8.75 5.9375 8.75H10.3125C10.5611 8.75 10.7996 8.84877 10.9754 9.02459C11.1512 9.2004 11.25 9.43886 11.25 9.6875C11.25 9.93614 11.1512 10.1746 10.9754 10.3504C10.7996 10.5262 10.5611 10.625 10.3125 10.625H5.9375C5.68886 10.625 5.4504 10.5262 5.27459 10.3504C5.09877 10.1746 5 9.93614 5 9.6875ZM5.9375 5.625C5.68886 5.625 5.4504 5.72377 5.27459 5.89959C5.09877 6.0754 5 6.31386 5 6.5625C5 6.81114 5.09877 7.0496 5.27459 7.22541C5.4504 7.40123 5.68886 7.5 5.9375 7.5H14.0625C14.3111 7.5 14.5496 7.40123 14.7254 7.22541C14.9012 7.0496 15 6.81114 15 6.5625C15 6.31386 14.9012 6.0754 14.7254 5.89959C14.5496 5.72377 14.3111 5.625 14.0625 5.625H5.9375Z" fill="black"/>
<path fill-rule="evenodd" clip-rule="evenodd" d="M18.75 4.0625C18.75 3.31658 18.4537 2.60121 17.9262 2.07376C17.3988 1.54632 16.6834 1.25 15.9375 1.25H4.0625C3.31658 1.25 2.60121 1.54632 2.07376 2.07376C1.54632 2.60121 1.25 3.31658 1.25 4.0625V17.8125C1.24998 17.9949 1.30318 18.1734 1.40308 18.326C1.50299 18.4787 1.64526 18.5988 1.81245 18.6718C1.97964 18.7448 2.16449 18.7674 2.34435 18.7369C2.5242 18.7064 2.69124 18.6241 2.825 18.5L6.32625 15.25C6.49963 15.0893 6.72733 15 6.96375 15H15.9375C16.3068 15 16.6726 14.9273 17.0138 14.7859C17.355 14.6446 17.6651 14.4374 17.9262 14.1762C18.1874 13.9151 18.3946 13.605 18.5359 13.2638C18.6773 12.9226 18.75 12.5568 18.75 12.1875V4.0625ZM15.9375 3.125C16.1861 3.125 16.4246 3.22377 16.6004 3.39959C16.7762 3.5754 16.875 3.81386 16.875 4.0625V12.1875C16.875 12.4361 16.7762 12.6746 16.6004 12.8504C16.4246 13.0262 16.1861 13.125 15.9375 13.125H6.965C6.25531 13.1246 5.57169 13.3925 5.05125 13.875L3.125 15.6625V4.0625C3.125 3.81386 3.22377 3.5754 3.39959 3.39959C3.5754 3.22377 3.81386 3.125 4.0625 3.125H15.9375Z" fill="black"/>
</svg>
