<svg width="20" height="21" viewBox="0 0 20 21" fill="none" xmlns="http://www.w3.org/2000/svg">
<path d="M9.375 7.03906C8.595 7.2524 8.125 7.85156 8.125 8.41656C8.125 8.98156 8.595 9.58073 9.375 9.79323V7.03906ZM10.625 11.2066V13.9599C11.405 13.7474 11.875 13.1482 11.875 12.5832C11.875 12.0182 11.405 11.4191 10.625 11.2066Z" fill="#263238"/>
<path fill-rule="evenodd" clip-rule="evenodd" d="M18.3333 10.5001C18.3333 15.1026 14.6025 18.8334 9.99996 18.8334C5.39746 18.8334 1.66663 15.1026 1.66663 10.5001C1.66663 5.89758 5.39746 2.16675 9.99996 2.16675C14.6025 2.16675 18.3333 5.89758 18.3333 10.5001ZM9.99996 4.87508C10.1657 4.87508 10.3247 4.94093 10.4419 5.05814C10.5591 5.17535 10.625 5.33432 10.625 5.50008V5.76425C11.9833 6.00758 13.125 7.02841 13.125 8.41675C13.125 8.58251 13.0591 8.74148 12.9419 8.85869C12.8247 8.9759 12.6657 9.04175 12.5 9.04175C12.3342 9.04175 12.1752 8.9759 12.058 8.85869C11.9408 8.74148 11.875 8.58251 11.875 8.41675C11.875 7.85175 11.405 7.25258 10.625 7.03925V9.93091C11.9833 10.1742 13.125 11.1951 13.125 12.5834C13.125 13.9717 11.9833 14.9926 10.625 15.2359V15.5001C10.625 15.6658 10.5591 15.8248 10.4419 15.942C10.3247 16.0592 10.1657 16.1251 9.99996 16.1251C9.8342 16.1251 9.67523 16.0592 9.55802 15.942C9.44081 15.8248 9.37496 15.6658 9.37496 15.5001V15.2359C8.01663 14.9926 6.87496 13.9717 6.87496 12.5834C6.87496 12.4177 6.94081 12.2587 7.05802 12.1415C7.17523 12.0243 7.3342 11.9584 7.49996 11.9584C7.66572 11.9584 7.82469 12.0243 7.9419 12.1415C8.05911 12.2587 8.12496 12.4177 8.12496 12.5834C8.12496 13.1484 8.59496 13.7476 9.37496 13.9601V11.0692C8.01663 10.8259 6.87496 9.80508 6.87496 8.41675C6.87496 7.02841 8.01663 6.00758 9.37496 5.76425V5.50008C9.37496 5.33432 9.44081 5.17535 9.55802 5.05814C9.67523 4.94093 9.8342 4.87508 9.99996 4.87508Z" fill="#263238"/>
</svg>
