<svg width="20" height="21" viewBox="0 0 20 21" fill="none" xmlns="http://www.w3.org/2000/svg">
<path d="M6.25 12.0625V15.1875C6.25 16.05 6.95 16.75 7.8125 16.75H12.1875C13.05 16.75 13.75 16.05 13.75 15.1875V12.0625C13.75 11.2 13.05 10.5 12.1875 10.5H7.8125C6.95 10.5 6.25 11.2 6.25 12.0625ZM7.5 12.0625C7.5 11.9796 7.53292 11.9001 7.59153 11.8415C7.65013 11.7829 7.72962 11.75 7.8125 11.75H8.75V13H7.5V12.0625ZM12.5 13H10V11.75H12.1875C12.2704 11.75 12.3499 11.7829 12.4085 11.8415C12.4671 11.9001 12.5 11.9796 12.5 12.0625V13ZM10 14.25H12.5V15.1875C12.5 15.2704 12.4671 15.3499 12.4085 15.4085C12.3499 15.4671 12.2704 15.5 12.1875 15.5H10V14.25ZM8.75 14.25V15.5H7.8125C7.72962 15.5 7.65013 15.4671 7.59153 15.4085C7.53292 15.3499 7.5 15.2704 7.5 15.1875V14.25H8.75ZM3.75 4.25C3.75 3.58696 4.01339 2.95107 4.48223 2.48223C4.95107 2.01339 5.58696 1.75 6.25 1.75H10.7325C11.2296 1.75044 11.7062 1.94827 12.0575 2.3L15.7013 5.9425C16.0525 6.294 16.2499 6.77057 16.25 7.2675V16.75C16.25 17.413 15.9866 18.0489 15.5178 18.5178C15.0489 18.9866 14.413 19.25 13.75 19.25H6.25C5.58696 19.25 4.95107 18.9866 4.48223 18.5178C4.01339 18.0489 3.75 17.413 3.75 16.75V4.25ZM6.25 3C5.91848 3 5.60054 3.1317 5.36612 3.36612C5.1317 3.60054 5 3.91848 5 4.25V16.75C5 17.0815 5.1317 17.3995 5.36612 17.6339C5.60054 17.8683 5.91848 18 6.25 18H13.75C14.0815 18 14.3995 17.8683 14.6339 17.6339C14.8683 17.3995 15 17.0815 15 16.75V8H11.875C11.3777 8 10.9008 7.80246 10.5492 7.45083C10.1975 7.09919 10 6.62228 10 6.125V3H6.25ZM11.875 6.75H14.7413L11.25 3.25875V6.125C11.25 6.29076 11.3158 6.44973 11.4331 6.56694C11.5503 6.68415 11.7092 6.75 11.875 6.75Z" fill="#263238"/>
</svg>
