<svg width="20" height="20" viewBox="0 0 20 20" fill="none" xmlns="http://www.w3.org/2000/svg">
<path d="M9.62598 2.60043C10.1337 2.60043 10.5453 2.18881 10.5453 1.68107C10.5453 1.17333 10.1337 0.761719 9.62598 0.761719V2.60043ZM19.126 10.2617C19.126 9.75399 18.7144 9.34236 18.2066 9.34236C17.6989 9.34236 17.2873 9.75399 17.2873 10.2617H19.126ZM18.2066 2.60043C18.7144 2.60043 19.126 2.18881 19.126 1.68107C19.126 1.17333 18.7144 0.761719 18.2066 0.761719V2.60043ZM13.1955 0.761719C12.6878 0.761719 12.2762 1.17333 12.2762 1.68107C12.2762 2.18881 12.6878 2.60043 13.1955 2.60043V0.761719ZM19.126 1.68107C19.126 1.17333 18.7144 0.761719 18.2066 0.761719C17.6989 0.761719 17.2873 1.17333 17.2873 1.68107H19.126ZM17.2873 6.75714C17.2873 7.26487 17.6989 7.67649 18.2066 7.67649C18.7144 7.67649 19.126 7.26487 19.126 6.75714H17.2873ZM18.8567 2.33116C19.2157 1.97213 19.2157 1.39002 18.8567 1.03099C18.4976 0.671965 17.9156 0.671965 17.5566 1.03099L18.8567 2.33116ZM8.97593 9.61167C8.61689 9.97071 8.61689 10.5527 8.97593 10.9118C9.33497 11.2708 9.91698 11.2708 10.276 10.9118L8.97593 9.61167ZM9.62598 0.761719H5.94856V2.60043H9.62598V0.761719ZM5.94856 0.761719C2.73284 0.761719 0.125977 3.36858 0.125977 6.5843H1.96469C1.96469 4.38406 3.74832 2.60043 5.94856 2.60043V0.761719ZM0.125977 6.5843V13.9391H1.96469V6.5843H0.125977ZM0.125977 13.9391C0.125977 17.1549 2.73284 19.7617 5.94856 19.7617V17.923C3.74832 17.923 1.96469 16.1393 1.96469 13.9391H0.125977ZM5.94856 19.7617H13.3034V17.923H5.94856V19.7617ZM13.3034 19.7617C16.5192 19.7617 19.126 17.1549 19.126 13.9391H17.2873C17.2873 16.1393 15.5036 17.923 13.3034 17.923V19.7617ZM19.126 13.9391V10.2617H17.2873V13.9391H19.126ZM18.2066 0.761719H13.1955V2.60043H18.2066V0.761719ZM17.2873 1.68107V6.75714H19.126V1.68107H17.2873ZM17.5566 1.03099L8.97593 9.61167L10.276 10.9118L18.8567 2.33116L17.5566 1.03099Z" fill="#4B67A8"/>
</svg>
